<svg width="30" height="30" xmlns="http://www.w3.org/2000/svg">
 <!-- Created with Method Draw - http://github.com/duopixel/Method-Draw/ -->
 <g>
  <title>background</title>
  <rect fill="none" id="canvas_background" height="32" width="32" y="-1" x="-1"/>
  <g display="none" overflow="visible" y="0" x="0" height="100%" width="100%" id="canvasGrid">
   <rect fill="url(#gridpattern)" stroke-width="0" y="0" x="0" height="100%" width="100%"/>
  </g>
 </g>
 <g>
  <title>Layer 1</title>
  <path id="svg_5" d="m1,280.375l149,-260.75l149,260.75z" opacity="0.5" fill-opacity="null" stroke-opacity="null" stroke-width="3" stroke="#000" fill="#000000"/>
  <path id="svg_6" d="m1,280.375l149,-260.75l149,260.75z" opacity="0.5" fill-opacity="null" stroke-opacity="null" stroke-width="3" stroke="#000" fill="#000000"/>
  <path id="svg_7" d="m1,280.375l149,-260.75l149,260.75z" opacity="0.5" fill-opacity="null" stroke-opacity="null" stroke-width="3" stroke="#000" fill="#000000"/>
  <path id="svg_8" d="m1,280.375l149,-260.75l149,260.75z" opacity="0.5" fill-opacity="null" stroke-opacity="null" stroke-width="3" stroke="#000" fill="#000000"/>
  <path id="svg_9" d="m1,280.375l149,-260.75l149,260.75z" opacity="0.5" fill-opacity="null" stroke-opacity="null" stroke-width="3" stroke="#000" fill="#000000"/>
  <path id="svg_10" d="m1,280.375l149,-260.75l149,260.75z" opacity="0.5" fill-opacity="null" stroke-opacity="null" stroke-width="3" stroke="#000" fill="#000000"/>
  <path id="svg_11" d="m1,280.375l149,-260.75l149,260.75z" opacity="0.5" fill-opacity="null" stroke-opacity="null" stroke-width="3" stroke="#000" fill="#000000"/>
  <path id="svg_12" d="m1,280.375l149,-260.75l149,260.75z" opacity="0.5" fill-opacity="null" stroke-opacity="null" stroke-width="3" stroke="#000" fill="#000000"/>
  <path id="svg_13" d="m1,280.375l149,-260.75l149,260.75z" opacity="0.5" stroke-opacity="null" stroke-width="3" stroke="#000" fill="#000000"/>
  <path id="svg_14" d="m1,280.375l149,-260.75l149,260.75z" opacity="0.5" stroke-opacity="null" stroke-width="3" stroke="#000" fill="#000000"/>
  <path id="svg_17" d="m1,280.375l149,-260.75l149,260.75z" opacity="0.5" stroke-opacity="null" stroke-width="3" stroke="#000" fill="#000000"/>
  <path id="svg_18" d="m1,280.375l149,-260.75l149,260.75z" opacity="0.5" stroke-opacity="null" stroke-width="3" stroke="#000" fill="#000000"/>
  <path id="svg_19" d="m2.767529,10.307219l7.159479,-7.067177l10.125164,0l7.159494,7.067177l0,9.994635l-7.159494,7.067183l-10.125164,0l-7.159479,-7.067183l0,-9.994635z" stroke-opacity="null" stroke-width="3" stroke="#000" fill="none"/>
 </g>
</svg>