<svg width="29.999999999999996" height="29.999999999999996" xmlns="http://www.w3.org/2000/svg">
 <!-- Created with Method Draw - http://github.com/duopixel/Method-Draw/ -->
 <g>
  <title>background</title>
  <rect fill="none" id="canvas_background" height="32" width="32" y="-1" x="-1"/>
  <g display="none" overflow="visible" y="0" x="0" height="100%" width="100%" id="canvasGrid">
   <rect fill="url(#gridpattern)" stroke-width="0" y="0" x="0" height="100%" width="100%"/>
  </g>
 </g>
 <g>
  <title>Layer 1</title>
  <line stroke-linecap="null" stroke-linejoin="null" id="svg_36" y2="28.84211" x2="4.649113" y1="0.771934" x1="4.649113" fill-opacity="null" stroke-opacity="null" stroke-width="3" stroke="#000" fill="none"/>
  <line stroke-linecap="null" stroke-linejoin="null" id="svg_37" y2="28.140355" x2="3.596482" y1="28.140355" x1="27.456131" fill-opacity="null" stroke-opacity="null" stroke-width="3" stroke="#000" fill="none"/>
  <path id="svg_39" d="m9.561394,17.614038" opacity="0.5" fill-opacity="null" stroke-opacity="null" stroke-width="3" stroke="#000" fill="none"/>
  <line stroke-linecap="null" stroke-linejoin="null" id="svg_38" y2="28.491232" x2="26.754377" y1="1.473688" x1="4.649113" fill-opacity="null" stroke-opacity="null" stroke-width="3" stroke="#000" fill="none"/>
  <path d="m10.614026,17.614038c0,0.701756 0.350877,2.105265 0.350877,3.85965c0,0.701756 -0.099179,1.112383 -0.701755,0c-1.272782,-2.349613 -1.398978,-3.10169 -1.052631,-3.157894c1.095243,-0.177732 0.521494,2.043421 0.701755,2.807016c0.080615,0.341492 -0.978894,-3.185415 -1.403509,-4.210526c-0.300247,-0.724861 -0.216601,-1.07934 -0.350877,-1.403509c-0.189893,-0.458443 -0.350877,-0.701754 -0.350877,-1.403508c0,-0.350878 0.042871,-1.055261 0,-1.403509c-0.176763,-1.435863 -0.350877,-1.754386 -0.350877,-2.105263c0,-0.350878 0,-0.701755 0,-1.052631c0,-0.350878 0.107878,-0.76702 -0.350877,-1.403509c-0.290142,-0.402551 -0.62114,-0.711141 -0.701755,-1.052632c-0.180261,-0.763597 0.701755,0.701755 0.701755,1.403509c0,0.701755 -0.100308,1.126904 0.701755,2.105264c0.62919,0.767488 0.594188,1.564492 1.052632,1.754386c0.324168,0.134274 0.102769,0.453647 0.350877,0.701755c0.248107,0.248107 0.593876,0.416142 1.052631,1.052631c0.290142,0.402551 0.872371,0.289035 1.052631,1.052631c0.080615,0.341491 -0.103347,1.174102 0.701755,1.754386c0.636489,0.458755 1.403509,1.052631 1.754386,1.403509c0.350878,0.350878 0.701755,0.701754 1.052631,1.052631c0.350878,0.350878 -1.184706,-0.379055 -1.754386,-1.754387c-0.268549,-0.648336 -1.213615,-1.295942 -1.403508,-1.754385c-0.268549,-0.648336 -0.872371,-0.990789 -1.052631,-1.754386c-0.080615,-0.341492 0.241846,-1.080791 0,-2.105264c-0.180261,-0.763597 -0.701755,-1.403508 -0.701755,-0.350877c0,1.052631 0.407453,2.033777 1.754386,3.157895c0.602366,0.502721 0.952324,0.776025 1.754386,1.754385c0.314595,0.383745 0.721503,0.78479 1.052631,1.403509c0.59695,1.115412 1.456927,0.784082 2.105263,1.052631c0.458445,0.189894 0.701756,0.701756 0.701756,1.052631c0,0.350878 0.683697,1.157438 1.052631,1.754387c0.412479,0.667408 0.668886,0.738035 1.052631,1.052631c0.978359,0.802063 1.269234,0.728462 1.403509,1.052631c0.189892,0.458443 1.052631,0.701756 1.403507,1.052631c0.350878,0.350878 1.184708,0.379057 1.754387,1.754387c0.134274,0.324167 -1.052631,0.350876 -3.157894,0.350876c-1.052631,0 -2.105265,0 -2.456141,0c-0.350878,0 -0.701756,0 -1.052631,0c-0.350878,0 -1.430218,0.134275 -1.754387,0c-0.458442,-0.189892 -1.052631,-0.701754 -1.403508,-0.701754c-0.350878,0 -0.945066,-0.160984 -1.403509,-0.350878c-0.972505,-0.402824 -1.403509,0 -1.754386,0c-1.052631,0 -1.997697,0.160984 -2.456141,0.350878c-0.324168,0.134275 -1.052631,0 -1.403509,0c-0.350877,0 -1.052632,0 -1.403509,0c-0.350877,0 -0.350877,-0.701754 -0.350877,-1.052631c0,-0.350878 0,-0.701754 0.350877,-1.052631c0.350877,-0.350878 0.350877,-0.701756 0.350877,-1.052631c0,-0.350878 0.350877,-1.052631 0.350877,-1.403509c0,-0.701756 -0.134275,-1.07934 0,-1.403509c0.189893,-0.458445 0.350877,-0.701754 0.350877,-1.052631c0,-0.350878 0,-0.701754 0,-1.403509c0,-0.350878 -0.350877,-0.701754 -0.350877,-1.403509c0,-0.350876 0,-0.701754 0,-1.052631c0,-0.350877 -0.041518,-0.887067 -0.350877,-1.052631c-1.115411,-0.596951 -0.594188,-1.94428 -1.052631,-1.754386c-0.648337,0.26855 -0.030443,1.415114 1.052631,4.210526c0.682647,1.761909 0.825842,3.872686 2.105264,5.263159c0.53125,0.577362 0.907293,1.258171 1.403508,1.754385c0.248108,0.248108 0.862739,0.458445 1.052632,0c0.134275,-0.324169 0,-1.403509 0,-2.105263c0,-1.052631 0,-2.105263 0,-2.456141c0,-0.701754 0.268551,-1.10605 0,-1.754387c-0.189894,-0.458443 -0.350878,-1.052631 -0.350878,-1.403507c0,-0.701756 -0.185313,-0.743273 -0.350877,-1.052632c-0.59695,-1.115412 -1.07934,-0.918356 -1.403509,-1.052631c-0.916886,-0.379786 -1.155401,-1.651617 -1.403509,-1.403509c-0.248108,0.248108 0.384722,1.520821 1.754386,4.210526c0.503498,0.988754 1.754386,2.105263 2.105263,2.456141c0.350877,0.350878 1.155656,0.254915 2.456141,1.754385c1.149477,1.325357 1.295942,1.915371 1.754386,2.105265c0.324168,0.134275 1.118365,0.62919 0.350877,0c-0.97836,-0.802063 -2.105263,-1.754385 -2.105263,-1.403509c0,0.701756 2.633095,-0.493336 4.210526,0.350878c0.875002,0.468287 0.701756,1.052631 0.701756,1.403507c0,0.350878 -0.248108,0.804525 0,1.052633c0.248106,0.248106 -0.431005,0.402824 -1.403509,0c-0.458445,-0.189894 -2.105264,-0.701756 -2.807017,-0.701756c-0.350878,0 -0.701755,0 -1.052632,0c-0.350877,0 -1.403508,0 -2.105263,0c-0.701755,0 -1.403509,0 -2.807017,0c-0.701755,0 -1.062018,-0.080616 -1.403509,0c-0.763597,0.180262 -0.350877,0.350878 0.350877,0.350878c0.701755,0 1.403509,0 2.105263,0c0.350877,0 1.052631,0 2.807017,0c0.350878,0 1.052631,0 2.456141,0c0.350877,0 1.806789,-0.184465 2.105263,0c0.667408,0.412479 0.486624,1.374599 1.403509,1.754385c0.324169,0.134275 0.701754,0.350878 1.052631,0.701756c0.350878,0.350876 0.970304,0.297459 0.701756,-0.350878c-0.189894,-0.458445 -0.350878,-0.701754 -0.350878,-1.052631c0,-0.350878 0.350878,-0.350878 1.052631,-0.350878c0.350878,0 0.239103,-0.077648 -1.754387,-1.052631c-1.136463,-0.555826 -3.525384,-2.083469 -4.91228,-3.157894c-1.776094,-1.375935 -4.31533,-2.39336 -4.91228,-3.508772c-0.165565,-0.309361 -0.134274,-1.07934 0,-1.403509c0.189893,-0.458444 0.350877,-0.701755 0.350877,-1.403509c0,-0.701755 0,-1.403508 0,-1.754386c0,-0.350877 0,-1.052631 0,-1.403508c0,-0.350878 -0.134275,-0.728463 0,-1.052632c0.189893,-0.458443 -0.053418,-0.082327 -0.701755,-0.350877c-0.458443,-0.189893 -1.508313,-0.288097 -2.105263,-1.403509c-0.165564,-0.30936 -0.517287,-0.754158 -0.701754,-1.052631c-0.412481,-0.667408 -1.052632,-1.052631 -0.701755,-1.052631c0.350877,0 1.052631,0 1.403509,0.350877l0.701755,0l0.701755,0.350877l0,0.350877" id="svg_40" fill-opacity="null" stroke-opacity="null" stroke-width="3" stroke="#000" fill="none"/>
  <path d="m10.263148,14.807022c0.701755,0 2.807017,0 3.508772,0c0.350878,0 1.155402,0.453647 1.403509,0.701754c0.248107,0.248107 0.891648,0.243312 0.701755,0.701756c-0.671374,1.620842 -3.598802,-0.497847 -5.263158,-1.052632c-0.665743,-0.221914 -0.862739,-0.243311 -1.052632,-0.701755c-0.26855,-0.648336 0,-1.052631 0,-1.403508c0,-0.701755 -0.648336,-2.187591 0,-2.456141c0.458443,-0.189894 0.377586,0.56748 0.701755,0.701755c0.458444,0.189893 0.728463,0.567479 1.052631,0.701754c0.458444,0.189894 0.991028,0.034347 1.403509,0.701755c0.184467,0.298474 0.350877,0.701755 0.350877,1.052631c0,0.350878 0,0.701755 0,1.403509c0,0.350877 -0.080615,1.062018 0,1.403508c0.180261,0.763597 1.052632,1.052631 1.403509,1.754387l0,0.350878l0,0.350876l0.350877,0" id="svg_43" fill-opacity="null" stroke-opacity="null" stroke-width="3" stroke="#000" fill="none"/>
 </g>
</svg>